<?xml version="1.0" encoding="UTF-8" standalone="no"?>
<!-- Created with Inkscape (http://www.inkscape.org/) -->
<svg
   xmlns:svg="http://www.w3.org/2000/svg"
   xmlns="http://www.w3.org/2000/svg"
   version="1.0"
   width="956.69287"
   height="250.86613"
   id="svg2591">
  <defs
     id="defs2593" />
  <g
     transform="translate(-69.70661,7.3040902)"
     id="layer1">
    <g
       id="g6049">
      <path
         d="M 105.13965,118.12573 C 105.13965,68.449109 145.40742,28.174852 195.07756,28.174852 C 211.35327,28.174852 226.65631,32.499913 239.81954,40.060651 L 166.80577,91.85763 L 249.09216,46.188382 L 250.25936,47.102634 L 177.95888,98.426251 L 257.71635,53.593494 L 259.07808,54.916317 L 188.52834,104.99492 L 265.49756,62.172287 L 266.66475,63.644252 L 198.83848,111.75808 L 272.04678,71.522727 C 272.43584,72.138748 272.76006,72.754716 273.14908,73.383706 L 209.99154,118.32675 L 278.01234,83.201024 C 282.55139,93.945616 285.01547,105.74063 285.01547,118.12573 C 285.01547,133.02025 281.44904,147.06536 275.02956,159.4375 L 166.02769,93.251782 L 166.02769,103.80179 L 274.44596,160.48798 C 272.8897,163.4124 271.2038,166.23313 269.32332,168.95005 L 166.02769,106.18806 L 166.02769,116.73807 L 268.61003,169.98107 C 266.79444,172.53589 264.84911,174.99348 262.77415,177.3408 L 166.02769,118.92332 L 166.02769,129.47332 L 261.93117,178.31346 C 259.72652,180.77101 257.39213,183.1054 254.9281,185.31005 L 166.02769,132.06061 L 166.02769,142.60413 L 253.82574,186.23084 C 251.23202,188.4744 248.50857,190.56887 245.65547,192.50766 L 166.02769,144.59485 L 166.02769,155.14486 L 244.29374,193.42845 C 230.1579,202.69459 213.2337,208.0831 195.07756,208.0831 C 145.40742,208.0831 105.13965,167.80879 105.13965,118.12573"
         style="fill:#0157a5;fill-rule:nonzero;stroke:none"
         id="path5826" />
      <path
         d="M 372.42446,171.28439 L 372.42446,126.19874 L 372.87837,126.19874 L 391.94238,171.28439 L 429.74612,171.28439 L 406.46729,123.63096 L 427.86564,85.029633 L 391.94238,85.029633 L 372.87837,124.3831 L 372.42446,124.3831 L 372.42446,63.923082 L 335.334,63.923082 L 335.334,171.28439 L 372.42446,171.28439"
         style="fill:#000000;fill-rule:evenodd;stroke:none"
         id="path5830" />
      <path
         d="M 521.24024,108.25005 C 521.24024,92.720059 505.28876,83.972671 476.36858,83.972671 C 447.4484,83.972671 431.49686,92.720059 431.49686,108.25005 L 431.49686,149.41916 C 431.49686,165.40312 452.63583,172.33487 476.36858,172.33487 C 500.10127,172.33487 521.24024,165.40312 521.24024,149.41916 L 521.24024,108.25005 z M 468.58737,105.68876 C 468.58737,102.52436 470.4678,99.658292 476.36858,99.658292 C 482.2693,99.658292 484.14979,102.52436 484.14979,105.68876 L 484.14979,150.62526 C 484.14979,153.78962 482.2693,156.65573 476.36858,156.65573 C 470.4678,156.65573 468.58737,153.78962 468.58737,150.62526 L 468.58737,105.68876"
         style="fill:#000000;fill-rule:evenodd;stroke:none"
         id="path5834" />
      <path
         d="M 568.64083,85.029633 L 531.55038,85.029633 L 531.55038,171.28439 L 568.64083,171.28439 L 568.64083,111.42089 C 568.64083,107.647 569.6135,103.57483 576.61657,103.57483 C 583.68455,103.57483 584.13846,107.647 584.13846,111.42089 L 584.13846,171.28439 L 621.29376,171.28439 L 621.29376,103.73046 C 621.29376,91.364814 612.79926,83.972671 596.13449,83.972671 C 581.60953,83.972671 572.66112,88.193981 569.15959,95.735266 L 568.64083,95.735266 L 568.64083,85.029633"
         style="fill:#000000;fill-rule:evenodd;stroke:none"
         id="path5838" />
      <path
         d="M 638.80155,100.71525 L 638.80155,153.33576 C 638.80155,164.64444 643.27575,171.28439 661.82095,171.28439 L 692.16765,171.28439 L 692.16765,155.59877 L 684.90525,155.59877 C 676.15135,155.59877 675.95685,152.88185 675.95685,147.7592 L 675.95685,100.71525 L 692.16765,100.71525 L 692.16765,85.029633 L 675.95685,85.029633 L 675.95685,69.499586 L 638.80155,69.499586 L 638.80155,85.029633 L 626.35156,85.029633 L 626.35156,100.71525 L 638.80155,100.71525"
         style="fill:#000000;fill-rule:evenodd;stroke:none"
         id="path5842" />
      <path
         d="M 738.27135,85.029633 L 701.11605,85.029633 L 701.11605,171.28439 L 738.27135,171.28439 L 738.27135,110.66226 C 738.27135,107.19958 739.89245,103.57483 745.98775,103.57483 C 752.08305,103.57483 753.76895,107.19958 753.76895,110.66226 L 753.76895,131.62615 L 790.85945,131.62615 L 790.85945,100.8644 C 790.85945,91.967866 784.50485,83.972671 765.70015,83.972671 C 752.08305,83.972671 743.91275,88.797033 738.91985,96.338318 L 738.27135,96.338318 L 738.27135,85.029633"
         style="fill:#000000;fill-rule:evenodd;stroke:none"
         id="path5846" />
      <path
         d="M 890.91295,108.25005 C 890.91295,92.720059 874.96145,83.972671 846.04125,83.972671 C 817.12105,83.972671 801.16955,92.720059 801.16955,108.25005 L 801.16955,149.41916 C 801.16955,165.40312 822.30855,172.33487 846.04125,172.33487 C 869.77395,172.33487 890.91295,165.40312 890.91295,149.41916 L 890.91295,108.25005 z M 838.26005,105.68876 C 838.26005,102.52436 840.14055,99.658292 846.04125,99.658292 C 851.94205,99.658292 853.82245,102.52436 853.82245,105.68876 L 853.82245,150.62526 C 853.82245,153.78962 851.94205,156.65573 846.04125,156.65573 C 840.14055,156.65573 838.26005,153.78962 838.26005,150.62526 L 838.26005,105.68876"
         style="fill:#000000;fill-rule:evenodd;stroke:none"
         id="path5850" />
      <path
         d="M 938.31355,85.029633 L 901.22305,85.029633 L 901.22305,171.28439 L 938.31355,171.28439 L 938.31355,111.42089 C 938.31355,107.647 939.28615,103.57483 946.35415,103.57483 C 953.35725,103.57483 953.87595,107.647 953.87595,111.42089 L 953.87595,171.28439 L 990.96645,171.28439 L 990.96645,103.73046 C 990.96645,91.364814 982.53675,83.972671 965.80715,83.972671 C 951.28215,83.972671 942.33385,88.193981 938.83225,95.735266 L 938.31355,95.735266 L 938.31355,85.029633"
         style="fill:#000000;fill-rule:evenodd;stroke:none"
         id="path5854" />
    </g>
  </g>
</svg>
